<?xml version="1.0" standalone="no"?>
<!DOCTYPE svg PUBLIC "-//W3C//DTD SVG 20010904//EN"
 "http://www.w3.org/TR/2001/REC-SVG-20010904/DTD/svg10.dtd">
<svg version="1.0" xmlns="http://www.w3.org/2000/svg"
 width="700.000000pt" height="700.000000pt" viewBox="0 0 700.000000 700.000000"
 preserveAspectRatio="xMidYMid meet">
<metadata>
Created by potrace 1.11, written by Peter Selinger 2001-2013
</metadata>
<g transform="translate(0.000000,700.000000) scale(0.100000,-0.100000)"
fill="#000000" stroke="none">
<path d="M985 6989 c-165 -21 -338 -86 -476 -179 -86 -58 -223 -198 -284 -289
-60 -92 -119 -226 -148 -340 l-22 -86 0 -2410 0 -2410 27 -96 c64 -233 202
-439 387 -580 82 -63 262 -151 361 -178 41 -11 116 -25 165 -31 57 -6 612 -10
1515 -10 l1425 0 -87 -87 c-96 -98 -108 -117 -108 -165 1 -91 102 -157 178
-115 12 7 94 84 182 172 168 166 183 190 169 253 -22 100 -143 129 -222 55
-28 -26 -29 -27 -23 -6 4 13 50 179 102 370 52 191 96 348 97 350 2 1 164
-159 362 -357 198 -198 357 -361 355 -363 -3 -2 -88 -27 -190 -55 l-185 -51
590 3 c518 2 599 5 664 20 398 93 703 384 808 772 l27 99 4 465 3 465 129 131
c74 74 136 146 145 167 22 52 19 152 -5 206 -13 28 -67 91 -145 170 l-125 126
0 1518 c0 1493 0 1521 -21 1620 -43 212 -130 376 -279 528 -166 169 -323 254
-570 310 -43 10 -562 13 -2395 15 -1328 1 -2370 -2 -2410 -7z m1540 -899 c45
-28 69 -88 55 -138 -13 -48 -892 -1078 -942 -1104 -41 -22 -74 -22 -113 0 -75
42 -627 467 -640 493 -31 59 -10 134 48 169 36 22 87 26 120 9 12 -7 131 -94
265 -195 l244 -183 400 467 c221 257 412 475 427 484 35 24 96 23 136 -2z
m3157 -620 c44 -13 85 -58 94 -105 8 -42 -19 -100 -59 -129 -28 -21 -35 -21
-1170 -24 -628 -2 -1166 0 -1195 3 -118 14 -168 139 -87 220 19 18 47 35 62
38 65 10 2319 7 2355 -3z m-3141 -1176 c40 -38 54 -93 35 -138 -20 -47 -905
-1078 -939 -1093 -35 -16 -74 -16 -107 0 -58 27 -630 468 -645 496 -20 39 -19
74 2 118 21 44 88 78 137 69 19 -4 126 -78 285 -197 209 -158 255 -189 266
-178 7 8 188 220 403 471 216 251 404 464 419 473 42 23 108 14 144 -21z
m3177 -624 c63 -38 77 -125 31 -184 -47 -59 27 -56 -1246 -56 -1092 0 -1170 1
-1202 18 -69 35 -93 111 -57 180 34 65 -48 61 1256 62 1171 0 1185 0 1218 -20z
m-3177 -1286 c40 -38 54 -93 36 -137 -22 -52 -910 -1082 -947 -1097 -63 -26
-85 -14 -416 234 -316 238 -344 264 -344 323 0 65 67 133 130 133 39 0 63 -16
315 -204 129 -97 238 -177 243 -178 5 -2 187 205 406 460 218 255 411 472 429
483 45 28 109 21 148 -17z m2264 -604 l-130 -130 -687 2 -687 3 -31 30 c-36
34 -49 77 -39 123 8 37 42 79 74 92 11 5 382 9 825 9 l805 1 -130 -130z m795
127 c0 -1 -57 -58 -127 -127 l-128 -125 125 128 c116 118 130 132 130 124z"/>
</g>
</svg>
